<svg width="11px" height="11px" viewBox="0 0 170.079 170.079" enable-background="new 0 0 170.079 170.078" version="1.1" xml:space="preserve" xmlns="http://www.w3.org/2000/svg" xmlns:xlink="http://www.w3.org/1999/xlink" fill="#000000"><g id="SVGRepo_bgCarrier" stroke-width="0"></g><g id="SVGRepo_tracerCarrier" stroke-linecap="round" stroke-linejoin="round"></g><g id="SVGRepo_iconCarrier"> <g id="background"></g> <g id="AESTHETICS_ICONS"> <g> <g> <path d="M144.667,33.673c5.218,5.989,9.375,13.801,11.663,22.785c6.001,23.544-3.081,46.186-20.282,50.569 c-17.202,4.381-36.011-11.152-42.011-34.696c-2.29-8.983-2.377-17.832-0.663-25.587L144.667,33.673z" fill="#FFFFFF"></path> <path d=" M158.237,72.7c-0.513,17-8.917,31.06-22.098,34.418C119.006,111.483,100.289,96.7,94.206,72.7H158.237z" fill="#FFFFFF" stroke="#0a0a0a" stroke-linecap="round" stroke-linejoin="round" stroke-miterlimit="10" stroke-width="4"></path> <path d=" M144.823,34.29c5.043,5.298,9.298,13.491,11.586,22.476c6.002,23.546-3.121,46.031-20.323,50.416 c-17.201,4.383-35.95-10.918-41.95-34.464c-2.29-8.984-2.494-18.293-0.604-25.356L144.823,34.29z" fill="none" stroke="#0a0a0a" stroke-linecap="round" stroke-linejoin="round" stroke-miterlimit="10" stroke-width="4"></path> <line fill="none" stroke="#0a0a0a" stroke-linecap="round" stroke-linejoin="round" stroke-miterlimit="10" stroke-width="4" x1="135.72" x2="145.486" y1="107.036" y2="145.358"></line> <line fill="none" stroke="#0a0a0a" stroke-linecap="round" stroke-linejoin="round" stroke-miterlimit="10" stroke-width="4" x1="153.364" x2="137.293" y1="142.692" y2="146.788"></line> </g> <g> <path d="M25.413,22.673c-5.218,5.989-9.375,13.801-11.663,22.785c-6.001,23.544,3.081,46.186,20.282,50.569 c17.202,4.381,36.011-11.152,42.011-34.696c2.29-8.983,2.377-17.832,0.662-25.587L25.413,22.673z" fill="#FFFFFF"></path> <path d=" M11.842,61.7c0.513,17,8.917,31.06,22.098,34.418C51.073,100.483,69.791,85.7,75.874,61.7H11.842z" fill="#FFFFFF" stroke="#0a0a0a" stroke-linecap="round" stroke-linejoin="round" stroke-miterlimit="10" stroke-width="4"></path> <path d=" M25.256,23.29c-5.043,5.298-9.298,13.491-11.587,22.476c-6.001,23.546,3.122,46.031,20.324,50.416 c17.201,4.383,35.95-10.918,41.95-34.464c2.29-8.984,2.494-18.293,0.604-25.356L25.256,23.29z" fill="none" stroke="#0a0a0a" stroke-linecap="round" stroke-linejoin="round" stroke-miterlimit="10" stroke-width="4"></path> <line fill="none" stroke="#0a0a0a" stroke-linecap="round" stroke-linejoin="round" stroke-miterlimit="10" stroke-width="4" x1="34.358" x2="24.593" y1="96.036" y2="134.358"></line> <line fill="none" stroke="#0a0a0a" stroke-linecap="round" stroke-linejoin="round" stroke-miterlimit="10" stroke-width="4" x1="16.715" x2="32.786" y1="131.692" y2="135.788"></line> </g> </g> </g> <g id="SAMPLE_TEXT"></g> </g></svg>