<?xml version="1.0" standalone="no"?>
<!DOCTYPE svg PUBLIC "-//W3C//DTD SVG 20010904//EN"
 "http://www.w3.org/TR/2001/REC-SVG-20010904/DTD/svg10.dtd">
<svg version="1.0" xmlns="http://www.w3.org/2000/svg"
 width="866.000000pt" height="1280.000000pt" viewBox="0 0 866.000000 1280.000000"
 preserveAspectRatio="xMidYMid meet">
<metadata>
Created by potrace 1.15, written by Peter Selinger 2001-2017
</metadata>
<g transform="translate(0.000000,1280.000000) scale(0.100000,-0.100000)"
fill="#000000" stroke="none">
<path d="M5354 12789 c-197 -17 -380 -56 -585 -122 l-104 -33 -3 -137 c-2 -86
1 -137 7 -137 6 0 34 10 63 21 283 114 539 170 773 170 159 1 241 -10 346 -46
136 -46 219 -124 234 -221 16 -96 -75 -207 -261 -319 -527 -316 -563 -362
-564 -707 l0 -118 229 0 229 0 4 158 c6 188 16 220 93 289 28 27 118 89 199
138 356 217 469 306 527 415 20 38 24 59 24 140 0 83 -4 103 -27 153 -124 264
-602 408 -1184 356z"/>
<path d="M3185 11914 c-261 -39 -533 -165 -755 -349 -99 -82 -243 -233 -237
-248 2 -7 26 -87 52 -179 26 -93 51 -168 54 -168 3 0 22 22 41 47 63 84 252
273 334 335 256 191 528 240 699 125 59 -39 120 -128 137 -198 17 -68 7 -197
-19 -274 -12 -32 -81 -172 -153 -310 -253 -478 -262 -543 -135 -983 25 -84 47
-155 49 -157 3 -3 368 131 375 138 1 1 -18 72 -43 157 -106 371 -105 385 81
735 133 250 198 386 231 485 24 75 28 100 28 210 0 111 -3 134 -28 205 -72
209 -200 337 -400 400 -77 25 -238 40 -311 29z"/>
<path d="M6970 10885 c-57 -57 -102 -106 -99 -108 2 -2 31 -14 64 -27 104 -40
337 -156 430 -215 371 -233 605 -524 605 -752 0 -101 -56 -184 -146 -213 -72
-24 -227 -7 -492 54 -498 113 -564 103 -800 -130 l-123 -121 178 -176 178
-176 120 118 c66 65 139 127 161 139 87 44 135 40 486 -39 289 -65 374 -79
478 -79 153 0 252 45 331 150 55 73 74 137 73 250 0 111 -25 211 -83 335 -144
307 -489 660 -882 906 -110 68 -342 189 -364 189 -6 0 -57 -47 -115 -105z"/>
<path d="M5250 10730 l0 -190 246 0 245 0 -3 188 -3 187 -242 3 -243 2 0 -190z"/>
<path d="M2225 9669 c-102 -29 -264 -109 -390 -194 -285 -190 -665 -566 -855
-845 l-40 -59 66 -76 66 -76 66 98 c226 339 492 610 724 738 168 92 310 100
346 20 32 -69 11 -140 -118 -414 -107 -228 -133 -290 -150 -360 -14 -58 -8
-136 12 -176 18 -33 141 -184 151 -185 4 0 84 66 178 146 l169 146 -30 37
c-75 88 -120 155 -125 185 -9 46 20 126 140 381 147 315 179 414 161 509 -9
46 -59 104 -111 127 -54 25 -168 24 -260 -2z"/>
<path d="M4163 9573 c-3 -10 -19 -51 -35 -91 -15 -40 -28 -75 -28 -77 0 -3 31
-5 69 -5 175 0 450 -46 607 -101 292 -102 469 -264 423 -386 -30 -78 -95 -101
-394 -138 -403 -50 -432 -67 -522 -308 -14 -37 -23 -70 -20 -73 6 -7 336 -134
346 -134 4 0 25 44 46 98 67 169 80 176 384 212 326 40 423 64 492 127 51 46
73 107 66 182 -7 80 -45 149 -132 237 -206 209 -632 389 -1071 454 -176 25
-223 26 -231 3z"/>
<path d="M3521 9333 c-107 -40 -196 -75 -197 -76 -2 -2 135 -490 139 -494 3
-3 388 145 395 151 6 7 -125 476 -137 487 -3 4 -93 -27 -200 -68z"/>
<path d="M6091 9065 c-78 -80 -141 -149 -139 -153 8 -19 368 -364 377 -361 5
2 71 68 147 147 114 120 135 145 123 156 -8 7 -93 90 -190 184 l-176 172 -142
-145z"/>
<path d="M7636 8580 c-53 -37 -96 -72 -94 -76 2 -5 40 -31 86 -59 214 -130
415 -302 527 -451 117 -155 180 -326 156 -427 -15 -65 -45 -105 -95 -128 -82
-37 -168 -23 -398 67 -327 128 -427 154 -525 134 -32 -7 -71 -19 -88 -27 -46
-22 -244 -157 -245 -166 0 -9 226 -303 240 -312 6 -4 53 23 105 60 203 141
207 141 620 -18 226 -87 311 -110 410 -111 94 0 158 23 218 82 110 106 133
255 72 465 -65 227 -250 497 -504 739 -105 100 -258 220 -347 273 l-40 24 -98
-69z"/>
<path d="M2405 8184 c-88 -74 -171 -146 -184 -159 l-24 -23 88 -101 c48 -56
91 -100 95 -99 13 6 359 303 359 310 1 5 -168 208 -173 208 0 0 -73 -61 -161
-136z"/>
<path d="M4137 8124 c-27 -69 -47 -128 -44 -130 15 -16 370 -145 377 -137 5 4
29 61 54 126 44 117 44 118 23 127 -12 5 -92 35 -177 68 -85 33 -162 63 -170
66 -12 5 -26 -23 -63 -120z"/>
<path d="M6643 7247 c-73 -51 -132 -96 -133 -100 0 -12 252 -337 263 -337 4 0
69 43 142 95 l135 95 -132 170 c-72 94 -134 170 -137 170 -3 -1 -65 -42 -138
-93z"/>
<path d="M2755 7031 c-144 -41 -284 -130 -398 -251 -84 -89 -128 -166 -162
-282 -41 -140 -32 -193 76 -430 27 -59 49 -113 49 -120 -1 -7 -46 -47 -102
-88 -119 -88 -307 -266 -406 -382 -100 -119 -193 -266 -271 -430 -166 -348
-194 -526 -222 -1403 -6 -203 -10 -449 -7 -545 4 -159 7 -182 32 -250 31 -86
45 -205 27 -238 l-12 -22 -39 20 c-78 40 -236 179 -334 295 -84 98 -245 346
-315 485 -66 129 -148 362 -179 510 -36 168 -44 286 -40 558 l5 257 65 195
c36 107 84 234 106 282 82 176 290 455 448 601 34 32 64 66 67 77 6 23 -16 50
-41 50 -75 -1 -331 -206 -532 -425 -142 -156 -304 -423 -394 -652 -39 -98
-100 -325 -141 -525 -56 -273 -42 -600 45 -1053 32 -169 46 -327 55 -620 8
-247 18 -342 45 -401 12 -25 26 -73 31 -105 12 -75 41 -156 140 -387 137 -321
228 -471 374 -617 75 -75 106 -98 185 -138 198 -99 466 -127 683 -72 135 35
177 83 177 200 0 78 -4 95 -82 370 -62 217 -79 326 -59 378 6 16 18 27 30 27
32 0 98 -85 116 -148 35 -120 287 -656 400 -848 85 -144 198 -315 255 -383 94
-113 366 -320 469 -357 25 -9 76 -29 112 -45 37 -16 116 -39 175 -50 60 -11
133 -32 163 -46 49 -23 62 -25 130 -19 42 4 131 20 199 37 232 57 322 97 363
162 34 54 12 183 -54 313 -30 59 -85 220 -127 372 -52 190 -64 284 -64 537 -1
228 -1 231 28 319 60 183 108 206 562 271 400 58 723 134 959 227 395 156 766
410 990 678 146 176 210 306 330 680 63 195 70 241 70 510 0 263 -2 273 -78
425 -133 269 -359 515 -572 625 -100 52 -130 57 -212 31 -134 -41 -308 -163
-350 -245 -24 -46 -12 -165 36 -346 77 -291 102 -394 122 -499 45 -245 61
-503 39 -622 -16 -82 -44 -129 -133 -225 -149 -159 -336 -290 -442 -309 -22
-4 -58 -17 -80 -30 -46 -27 -140 -47 -345 -74 -80 -11 -164 -26 -188 -34 -59
-21 -117 -62 -166 -120 -22 -27 -61 -63 -86 -81 -41 -28 -52 -31 -120 -31 -67
1 -92 7 -230 60 -192 73 -231 77 -389 41 -62 -14 -134 -26 -160 -26 -43 0 -49
3 -104 62 -32 35 -94 115 -137 178 -106 157 -146 192 -239 213 -161 37 -396
179 -552 336 -144 144 -239 300 -309 511 -52 155 -64 250 -64 510 0 243 10
336 54 510 53 215 275 664 383 778 63 67 111 77 160 36 27 -23 38 -26 78 -21
60 7 140 48 253 130 82 60 166 111 449 277 100 59 108 66 118 104 33 122 -55
405 -174 562 -133 175 -346 252 -542 195z m945 -4495 c69 -14 168 -28 220 -31
106 -7 156 -19 163 -39 9 -22 -28 -71 -77 -104 -57 -37 -124 -46 -295 -40
-105 4 -122 7 -163 31 -25 14 -70 54 -101 87 -63 68 -73 104 -34 120 31 14
140 5 287 -24z"/>
<path d="M5530 6673 c-143 -12 -219 -50 -330 -162 -121 -121 -199 -263 -216
-390 -15 -113 11 -152 180 -267 145 -100 249 -188 385 -326 l110 -112 111 12
c61 6 127 19 147 28 74 36 233 223 305 360 52 98 68 165 57 235 -30 189 -195
430 -373 544 -84 53 -253 89 -376 78z"/>
<path d="M3070 4738 c-259 -91 -450 -361 -451 -638 -1 -151 39 -262 124 -350
91 -96 234 -123 347 -68 71 35 180 132 250 222 30 39 88 112 129 161 94 115
105 140 97 229 -21 231 -91 367 -221 434 -73 37 -186 41 -275 10z m125 -301
c48 -41 50 -144 4 -193 -77 -82 -171 57 -113 168 27 51 68 61 109 25z"/>
<path d="M4703 4550 c-86 -20 -181 -107 -252 -231 -51 -88 -65 -142 -59 -222
8 -89 47 -197 143 -393 94 -191 146 -260 235 -308 71 -39 148 -34 246 14 199
98 277 283 244 579 -25 230 -126 399 -300 501 -102 60 -181 79 -257 60z m138
-290 c48 -26 65 -129 29 -187 -25 -42 -63 -52 -98 -26 -58 43 -65 134 -16 193
27 31 52 37 85 20z"/>
<path d="M3555 3250 c-33 -4 -75 -14 -93 -24 -32 -16 -72 -68 -72 -93 0 -28
65 -83 151 -128 108 -58 151 -91 191 -145 17 -22 35 -40 41 -40 6 0 54 25 107
55 68 39 119 60 169 71 83 17 116 35 137 75 62 121 -80 199 -417 229 -123 11
-125 11 -214 0z"/>
</g>
</svg>
